<?xml version="1.0" encoding="UTF-8"?>
<!DOCTYPE svg PUBLIC "-//W3C//DTD SVG 1.1//EN" "http://www.w3.org/Graphics/SVG/1.1/DTD/svg11.dtd">
<svg xmlns="http://www.w3.org/2000/svg" version="1.1" width="512px" height="512px" style="shape-rendering:geometricPrecision; text-rendering:geometricPrecision; image-rendering:optimizeQuality; fill-rule:evenodd; clip-rule:evenodd" xmlns:xlink="http://www.w3.org/1999/xlink">
<g><path style="opacity:1" fill="#f7f5f4" d="M -0.5,-0.5 C 56.8333,-0.5 114.167,-0.5 171.5,-0.5C 171.5,0.833333 171.5,2.16667 171.5,3.5C 170.325,3.28099 169.325,3.61432 168.5,4.5C 167.626,6.7466 167.292,9.07994 167.5,11.5C 172.833,11.5 178.167,11.5 183.5,11.5C 183.5,12.8333 183.5,14.1667 183.5,15.5C 184.833,15.5 186.167,15.5 187.5,15.5C 187.5,14.1667 187.5,12.8333 187.5,11.5C 188.833,11.5 190.167,11.5 191.5,11.5C 191.5,12.8333 191.5,14.1667 191.5,15.5C 195.673,16.0436 199.506,15.377 203,13.5C 209.283,15.2489 216.116,15.9156 223.5,15.5C 223.5,20.8333 223.5,26.1667 223.5,31.5C 226.247,31.8134 228.914,31.48 231.5,30.5C 231.313,25.6211 231.313,20.6211 231.5,15.5C 235.434,15.9789 239.101,15.3122 242.5,13.5C 243.842,15.0049 245.508,15.6715 247.5,15.5C 247.334,20.5111 247.501,25.5111 248,30.5C 248.333,30.8333 248.667,31.1667 249,31.5C 250.017,28.972 251.184,28.972 252.5,31.5C 254.876,29.3732 255.876,26.7065 255.5,23.5C 260.833,23.5 266.167,23.5 271.5,23.5C 271.187,26.2469 271.52,28.9135 272.5,31.5C 273.167,30.8333 273.833,30.1667 274.5,29.5C 278.582,31.3462 282.915,32.0128 287.5,31.5C 287.5,32.8333 287.5,34.1667 287.5,35.5C 288.833,35.5 290.167,35.5 291.5,35.5C 291.5,36.8333 291.5,38.1667 291.5,39.5C 290.167,39.5 288.833,39.5 287.5,39.5C 287.172,44.8746 287.505,50.2079 288.5,55.5C 290.573,58.7297 292.406,62.063 294,65.5C 296.154,61.7563 295.987,58.0896 293.5,54.5C 295.173,52.4775 295.84,50.1441 295.5,47.5C 298.167,47.5 300.833,47.5 303.5,47.5C 303.423,44.9876 304.423,42.9876 306.5,41.5C 307.466,43.396 307.799,45.396 307.5,47.5C 310.833,47.5 314.167,47.5 317.5,47.5C 318.167,42.1667 318.833,42.1667 319.5,47.5C 322.788,47.927 325.788,47.2603 328.5,45.5C 330.523,47.1733 332.856,47.8399 335.5,47.5C 335.5,52.8333 335.5,58.1667 335.5,63.5C 339.434,63.9789 343.101,63.3122 346.5,61.5C 348.523,63.1733 350.856,63.8399 353.5,63.5C 356.185,59.5887 354.852,57.4221 349.5,57C 351.34,54.1737 352.006,51.0071 351.5,47.5C 364.685,47.2679 378.019,47.2679 391.5,47.5C 391.5,49.5 391.5,51.5 391.5,53.5C 394.258,54.2911 396.758,54.9578 399,55.5C 399.497,58.146 399.664,60.8127 399.5,63.5C 402.167,63.5 404.833,63.5 407.5,63.5C 407.267,55.6006 407.267,47.6006 407.5,39.5C 410.898,39.8204 414.232,39.487 417.5,38.5C 415.172,36.4257 415.839,35.4257 419.5,35.5C 419.5,36.8333 419.5,38.1667 419.5,39.5C 420.833,39.5 422.167,39.5 423.5,39.5C 423.672,37.5082 423.005,35.8415 421.5,34.5C 423.312,31.1011 423.979,27.4344 423.5,23.5C 426.167,23.5 428.833,23.5 431.5,23.5C 432.366,28.8312 433.366,34.1646 434.5,39.5C 435.167,38.8333 435.833,38.1667 436.5,37.5C 438.577,38.9876 439.577,40.9876 439.5,43.5C 440.822,43.33 441.989,43.6634 443,44.5C 443.499,48.1516 443.665,51.8183 443.5,55.5C 444.833,55.5 446.167,55.5 447.5,55.5C 447.5,58.1667 447.5,60.8333 447.5,63.5C 450.167,63.5 452.833,63.5 455.5,63.5C 454.962,59.6427 455.962,56.3094 458.5,53.5C 459.833,56.1667 461.167,56.1667 462.5,53.5C 463.466,51.604 463.799,49.604 463.5,47.5C 466.167,47.5 468.833,47.5 471.5,47.5C 470.833,53.5 473.5,56.1667 479.5,55.5C 479.5,52.8333 479.5,50.1667 479.5,47.5C 482.167,47.5 484.833,47.5 487.5,47.5C 487.5,44.8333 487.5,42.1667 487.5,39.5C 493.868,39.8297 500.202,39.4963 506.5,38.5C 507.375,36.2275 509.042,35.2275 511.5,35.5C 511.5,82.1667 511.5,128.833 511.5,175.5C 508.354,174.69 506.687,172.69 506.5,169.5C 505.127,169.343 503.793,169.51 502.5,170C 502.833,170.333 503.167,170.667 503.5,171C 501.893,172.049 501.227,173.549 501.5,175.5C 499.5,175.5 497.5,175.5 495.5,175.5C 495.5,178.167 495.5,180.833 495.5,183.5C 491.719,183.907 488.719,182.574 486.5,179.5C 485.315,180.853 483.981,182.02 482.5,183C 478.848,183.499 475.182,183.665 471.5,183.5C 471.5,180.833 471.5,178.167 471.5,175.5C 468.833,175.5 466.167,175.5 463.5,175.5C 463.5,178.167 463.5,180.833 463.5,183.5C 459.566,183.979 455.899,183.312 452.5,181.5C 448.418,183.346 444.085,184.013 439.5,183.5C 439.5,186.167 439.5,188.833 439.5,191.5C 436.833,191.5 434.167,191.5 431.5,191.5C 431.5,186.167 431.5,180.833 431.5,175.5C 428.833,175.5 426.167,175.5 423.5,175.5C 423.556,179.665 422.223,183.331 419.5,186.5C 420.833,187.167 422.167,187.833 423.5,188.5C 421.994,191.474 420.328,191.807 418.5,189.5C 416.588,191.657 414.921,193.991 413.5,196.5C 414.167,197.167 414.833,197.833 415.5,198.5C 408.764,199.319 402.098,199.652 395.5,199.5C 394.833,199.167 394.167,198.833 393.5,198.5C 394.506,197.604 394.506,196.938 393.5,196.5C 392.3,197.531 390.966,198.365 389.5,199C 383.167,199.667 376.833,199.667 370.5,199C 369.397,197.32 369.73,195.82 371.5,194.5C 371.167,194.167 370.833,193.833 370.5,193.5C 369.667,194.5 368.833,195.5 368,196.5C 367.667,196.167 367.333,195.833 367,195.5C 366.278,211.849 366.445,228.182 367.5,244.5C 366.5,244.5 365.5,244.5 364.5,244.5C 364.832,200.33 364.499,156.33 363.5,112.5C 357.5,112.5 351.5,112.5 345.5,112.5C 313.397,116.469 292.231,133.803 282,164.5C 281.304,167.478 280.804,170.478 280.5,173.5C 279.833,179.5 279.167,185.5 278.5,191.5C 277.396,189.611 276.063,187.945 274.5,186.5C 265.772,173.392 257.272,160.059 249,146.5C 233.193,126.898 212.693,115.564 187.5,112.5C 176.346,111.505 165.012,111.172 153.5,111.5C 153.918,110.778 154.584,110.278 155.5,110C 154.833,109.833 154.167,109.667 153.5,109.5C 150.416,111.994 147.416,111.994 144.5,109.5C 143.833,112.833 143.167,116.167 142.5,119.5C 141.205,118.902 139.872,118.402 138.5,118C 139.696,117.346 139.696,116.846 138.5,116.5C 136.099,119.769 135.099,123.435 135.5,127.5C 128.5,129.167 125.833,126.5 127.5,119.5C 124.833,119.5 122.167,119.5 119.5,119.5C 119.816,116.022 119.316,112.688 118,109.5C 116.103,111.016 113.936,111.683 111.5,111.5C 111.5,103.5 111.5,95.5 111.5,87.5C 106.167,87.5 100.833,87.5 95.5,87.5C 95.5,82.1667 95.5,76.8333 95.5,71.5C 93.7376,71.3573 92.0709,71.6906 90.5,72.5C 89.5224,72.0233 88.6891,71.3567 88,70.5C 87.5007,65.5111 87.3341,60.5111 87.5,55.5C 81.5,56.1667 78.8333,53.5 79.5,47.5C 76.4281,47.1826 73.4281,47.5159 70.5,48.5C 71.3742,50.7466 71.7076,53.0799 71.5,55.5C 68.7531,55.8134 66.0865,55.48 63.5,54.5C 64.0525,52.2727 64.0525,49.9393 63.5,47.5C 62.1667,47.5 60.8333,47.5 59.5,47.5C 59.8282,42.1254 59.4948,36.7921 58.5,31.5C 56.7213,34.2764 55.7213,33.9431 55.5,30.5C 55.7896,28.9559 56.4563,27.6226 57.5,26.5C 55.6878,23.1011 55.0211,19.4344 55.5,15.5C 47.5,15.5 39.5,15.5 31.5,15.5C 31.5,14.1667 31.5,12.8333 31.5,11.5C 28.8333,11.5 26.1667,11.5 23.5,11.5C 23.5,10.1667 23.5,8.83333 23.5,7.5C 21.2341,7.85882 19.4007,7.19216 18,5.5C 16.2276,8.57206 15.061,11.9054 14.5,15.5C 13.8333,14.8333 13.1667,14.1667 12.5,13.5C 11.1585,15.0049 9.49181,15.6715 7.5,15.5C 5.00089,20.512 3.66756,25.8453 3.5,31.5C 4.83333,31.5 6.16667,31.5 7.5,31.5C 7.16197,34.0115 7.16197,36.3448 7.5,38.5C 6.31116,39.4287 4.97782,39.762 3.5,39.5C 3.5,42.1667 3.5,44.8333 3.5,47.5C 4.83333,47.5 6.16667,47.5 7.5,47.5C 7.5,51.5 7.5,55.5 7.5,59.5C 6.16667,59.5 4.83333,59.5 3.5,59.5C 3.5,60.8333 3.5,62.1667 3.5,63.5C 4.83333,63.5 6.16667,63.5 7.5,63.5C 7.5,64.8333 7.5,66.1667 7.5,67.5C 6.16667,67.5 4.83333,67.5 3.5,67.5C 3.5,68.8333 3.5,70.1667 3.5,71.5C 4.83333,71.5 6.16667,71.5 7.5,71.5C 7.6653,75.1817 7.49863,78.8484 7,82.5C 5.98873,83.3366 4.82207,83.67 3.5,83.5C 3.5,86.1667 3.5,88.8333 3.5,91.5C 2.16667,91.5 0.833333,91.5 -0.5,91.5C -0.5,60.8333 -0.5,30.1667 -0.5,-0.5 Z"/></g>
<g><path style="opacity:1" fill="#f9f7f6" d="M 171.5,-0.5 C 284.833,-0.5 398.167,-0.5 511.5,-0.5C 511.5,11.5 511.5,23.5 511.5,35.5C 509.042,35.2275 507.375,36.2275 506.5,38.5C 500.202,39.4963 493.868,39.8297 487.5,39.5C 487.5,42.1667 487.5,44.8333 487.5,47.5C 484.833,47.5 482.167,47.5 479.5,47.5C 479.5,50.1667 479.5,52.8333 479.5,55.5C 473.5,56.1667 470.833,53.5 471.5,47.5C 468.833,47.5 466.167,47.5 463.5,47.5C 463.799,49.604 463.466,51.604 462.5,53.5C 461.167,56.1667 459.833,56.1667 458.5,53.5C 455.962,56.3094 454.962,59.6427 455.5,63.5C 452.833,63.5 450.167,63.5 447.5,63.5C 447.5,60.8333 447.5,58.1667 447.5,55.5C 446.167,55.5 444.833,55.5 443.5,55.5C 443.665,51.8183 443.499,48.1516 443,44.5C 441.989,43.6634 440.822,43.33 439.5,43.5C 439.577,40.9876 438.577,38.9876 436.5,37.5C 435.833,38.1667 435.167,38.8333 434.5,39.5C 433.366,34.1646 432.366,28.8312 431.5,23.5C 428.833,23.5 426.167,23.5 423.5,23.5C 423.979,27.4344 423.312,31.1011 421.5,34.5C 423.005,35.8415 423.672,37.5082 423.5,39.5C 422.167,39.5 420.833,39.5 419.5,39.5C 419.5,38.1667 419.5,36.8333 419.5,35.5C 415.839,35.4257 415.172,36.4257 417.5,38.5C 414.232,39.487 410.898,39.8204 407.5,39.5C 407.267,47.6006 407.267,55.6006 407.5,63.5C 404.833,63.5 402.167,63.5 399.5,63.5C 399.664,60.8127 399.497,58.146 399,55.5C 396.758,54.9578 394.258,54.2911 391.5,53.5C 391.5,51.5 391.5,49.5 391.5,47.5C 378.019,47.2679 364.685,47.2679 351.5,47.5C 352.006,51.0071 351.34,54.1737 349.5,57C 354.852,57.4221 356.185,59.5887 353.5,63.5C 350.856,63.8399 348.523,63.1733 346.5,61.5C 343.101,63.3122 339.434,63.9789 335.5,63.5C 335.5,58.1667 335.5,52.8333 335.5,47.5C 332.856,47.8399 330.523,47.1733 328.5,45.5C 325.788,47.2603 322.788,47.927 319.5,47.5C 318.833,42.1667 318.167,42.1667 317.5,47.5C 314.167,47.5 310.833,47.5 307.5,47.5C 307.799,45.396 307.466,43.396 306.5,41.5C 304.423,42.9876 303.423,44.9876 303.5,47.5C 300.833,47.5 298.167,47.5 295.5,47.5C 295.84,50.1441 295.173,52.4775 293.5,54.5C 295.987,58.0896 296.154,61.7563 294,65.5C 292.406,62.063 290.573,58.7297 288.5,55.5C 287.505,50.2079 287.172,44.8746 287.5,39.5C 288.833,39.5 290.167,39.5 291.5,39.5C 291.5,38.1667 291.5,36.8333 291.5,35.5C 290.167,35.5 288.833,35.5 287.5,35.5C 287.5,34.1667 287.5,32.8333 287.5,31.5C 282.915,32.0128 278.582,31.3462 274.5,29.5C 273.833,30.1667 273.167,30.8333 272.5,31.5C 271.52,28.9135 271.187,26.2469 271.5,23.5C 266.167,23.5 260.833,23.5 255.5,23.5C 255.876,26.7065 254.876,29.3732 252.5,31.5C 251.184,28.972 250.017,28.972 249,31.5C 248.667,31.1667 248.333,30.8333 248,30.5C 247.501,25.5111 247.334,20.5111 247.5,15.5C 245.508,15.6715 243.842,15.0049 242.5,13.5C 239.101,15.3122 235.434,15.9789 231.5,15.5C 231.313,20.6211 231.313,25.6211 231.5,30.5C 228.914,31.48 226.247,31.8134 223.5,31.5C 223.5,26.1667 223.5,20.8333 223.5,15.5C 216.116,15.9156 209.283,15.2489 203,13.5C 199.506,15.377 195.673,16.0436 191.5,15.5C 191.5,14.1667 191.5,12.8333 191.5,11.5C 190.167,11.5 188.833,11.5 187.5,11.5C 187.5,12.8333 187.5,14.1667 187.5,15.5C 186.167,15.5 184.833,15.5 183.5,15.5C 183.5,14.1667 183.5,12.8333 183.5,11.5C 178.167,11.5 172.833,11.5 167.5,11.5C 167.292,9.07994 167.626,6.7466 168.5,4.5C 169.325,3.61432 170.325,3.28099 171.5,3.5C 171.5,2.16667 171.5,0.833333 171.5,-0.5 Z"/></g>
<g><path style="opacity:1" fill="#f4f2f0" d="M 153.5,111.5 C 153.328,112.492 153.662,113.158 154.5,113.5C 155.167,113.5 155.5,113.833 155.5,114.5C 154.173,118.951 153.506,123.784 153.5,129C 153.667,133.833 153.833,138.667 154,143.5C 155.045,144.373 155.878,145.373 156.5,146.5C 155.697,152.274 154.697,158.274 153.5,164.5C 152.502,201.33 152.168,238.33 152.5,275.5C 151.512,270.36 151.179,265.026 151.5,259.5C 148.833,259.5 146.167,259.5 143.5,259.5C 143.756,263.809 142.756,267.809 140.5,271.5C 139.833,270.833 139.167,270.167 138.5,269.5C 135.101,271.312 131.434,271.979 127.5,271.5C 127.5,266.167 127.5,260.833 127.5,255.5C 124.833,255.5 122.167,255.5 119.5,255.5C 119.5,252.833 119.5,250.167 119.5,247.5C 117.5,247.5 115.5,247.5 113.5,247.5C 112.499,243.665 111.499,239.831 110.5,236C 111.051,234.602 111.384,233.268 111.5,232C 108.854,231.503 106.187,231.336 103.5,231.5C 103.5,228.833 103.5,226.167 103.5,223.5C 96.1667,222.167 88.8333,222.167 81.5,223.5C 80.0959,215.952 79.4293,207.952 79.5,199.5C 71.5923,199.155 63.5923,199.155 55.5,199.5C 55.5,194.167 55.5,188.833 55.5,183.5C 52.8333,183.5 50.1667,183.5 47.5,183.5C 47.5,180.833 47.5,178.167 47.5,175.5C 44.8333,175.5 42.1667,175.5 39.5,175.5C 39.5,172.833 39.5,170.167 39.5,167.5C 36.8333,167.5 34.1667,167.5 31.5,167.5C 31.5,164.833 31.5,162.167 31.5,159.5C 28.6391,159.658 25.9724,158.992 23.5,157.5C 22.3279,157.919 21.3279,158.585 20.5,159.5C 19.8333,158.833 19.1667,158.167 18.5,157.5C 14.9573,159.108 11.9573,161.442 9.5,164.5C 11.5,165.167 13.5,165.833 15.5,166.5C 12.9135,167.48 10.2469,167.813 7.5,167.5C 7.5,163.5 7.5,159.5 7.5,155.5C 8.83333,155.5 10.1667,155.5 11.5,155.5C 11.5,154.167 11.5,152.833 11.5,151.5C 10.1667,151.5 8.83333,151.5 7.5,151.5C 7.82662,146.786 7.49329,142.12 6.5,137.5C 5.97476,141.696 3.64143,143.696 -0.5,143.5C -0.5,126.167 -0.5,108.833 -0.5,91.5C 0.833333,91.5 2.16667,91.5 3.5,91.5C 3.5,88.8333 3.5,86.1667 3.5,83.5C 4.82207,83.67 5.98873,83.3366 7,82.5C 7.49863,78.8484 7.6653,75.1817 7.5,71.5C 6.16667,71.5 4.83333,71.5 3.5,71.5C 3.5,70.1667 3.5,68.8333 3.5,67.5C 4.83333,67.5 6.16667,67.5 7.5,67.5C 7.5,66.1667 7.5,64.8333 7.5,63.5C 6.16667,63.5 4.83333,63.5 3.5,63.5C 3.5,62.1667 3.5,60.8333 3.5,59.5C 4.83333,59.5 6.16667,59.5 7.5,59.5C 7.5,55.5 7.5,51.5 7.5,47.5C 6.16667,47.5 4.83333,47.5 3.5,47.5C 3.5,44.8333 3.5,42.1667 3.5,39.5C 4.97782,39.762 6.31116,39.4287 7.5,38.5C 7.16197,36.3448 7.16197,34.0115 7.5,31.5C 6.16667,31.5 4.83333,31.5 3.5,31.5C 3.66756,25.8453 5.00089,20.512 7.5,15.5C 9.49181,15.6715 11.1585,15.0049 12.5,13.5C 13.1667,14.1667 13.8333,14.8333 14.5,15.5C 15.061,11.9054 16.2276,8.57206 18,5.5C 19.4007,7.19216 21.2341,7.85882 23.5,7.5C 23.5,8.83333 23.5,10.1667 23.5,11.5C 26.1667,11.5 28.8333,11.5 31.5,11.5C 31.5,12.8333 31.5,14.1667 31.5,15.5C 39.5,15.5 47.5,15.5 55.5,15.5C 55.0211,19.4344 55.6878,23.1011 57.5,26.5C 56.4563,27.6226 55.7896,28.9559 55.5,30.5C 55.7213,33.9431 56.7213,34.2764 58.5,31.5C 59.4948,36.7921 59.8282,42.1254 59.5,47.5C 60.8333,47.5 62.1667,47.5 63.5,47.5C 64.0525,49.9393 64.0525,52.2727 63.5,54.5C 66.0865,55.48 68.7531,55.8134 71.5,55.5C 71.7076,53.0799 71.3742,50.7466 70.5,48.5C 73.4281,47.5159 76.4281,47.1826 79.5,47.5C 78.8333,53.5 81.5,56.1667 87.5,55.5C 87.3341,60.5111 87.5007,65.5111 88,70.5C 88.6891,71.3567 89.5224,72.0233 90.5,72.5C 92.0709,71.6906 93.7376,71.3573 95.5,71.5C 95.5,76.8333 95.5,82.1667 95.5,87.5C 100.833,87.5 106.167,87.5 111.5,87.5C 111.5,95.5 111.5,103.5 111.5,111.5C 113.936,111.683 116.103,111.016 118,109.5C 119.316,112.688 119.816,116.022 119.5,119.5C 122.167,119.5 124.833,119.5 127.5,119.5C 125.833,126.5 128.5,129.167 135.5,127.5C 135.099,123.435 136.099,119.769 138.5,116.5C 139.696,116.846 139.696,117.346 138.5,118C 139.872,118.402 141.205,118.902 142.5,119.5C 143.167,116.167 143.833,112.833 144.5,109.5C 147.416,111.994 150.416,111.994 153.5,109.5C 154.167,109.667 154.833,109.833 155.5,110C 154.584,110.278 153.918,110.778 153.5,111.5 Z"/></g>
<g><path style="opacity:1" fill="#ec969a" d="M 153.5,111.5 C 165.012,111.172 176.346,111.505 187.5,112.5C 176.321,112.172 165.321,112.505 154.5,113.5C 153.662,113.158 153.328,112.492 153.5,111.5 Z"/></g>
<g><path style="opacity:1" fill="#fefdfd" d="M 155.5,114.5 C 174.592,123.88 193.259,134.046 211.5,145C 214.369,148.204 217.535,151.037 221,153.5C 226.31,161.962 232.143,169.962 238.5,177.5C 271.43,226.366 305.097,274.699 339.5,322.5C 346.064,333.394 353.397,343.728 361.5,353.5C 361.557,354.609 361.89,355.609 362.5,356.5C 362.5,357.167 362.833,357.5 363.5,357.5C 363.826,366.017 363.493,374.35 362.5,382.5C 350.571,376.868 338.904,370.702 327.5,364C 324.035,361.537 320.869,358.704 318,355.5C 295.637,323.653 273.137,291.986 250.5,260.5C 238.571,241.636 225.904,223.303 212.5,205.5C 203.257,191.356 193.757,177.356 184,163.5C 175.866,156.182 166.7,150.515 156.5,146.5C 155.878,145.373 155.045,144.373 154,143.5C 153.833,138.667 153.667,133.833 153.5,129C 153.506,123.784 154.173,118.951 155.5,114.5 Z"/></g>
<g><path style="opacity:1" fill="#fa0715" d="M 154.5,113.5 C 165.321,112.505 176.321,112.172 187.5,112.5C 212.693,115.564 233.193,126.898 249,146.5C 257.272,160.059 265.772,173.392 274.5,186.5C 274.631,187.239 274.464,187.906 274,188.5C 269.402,188.084 264.569,187.75 259.5,187.5C 259.5,186.167 259.5,184.833 259.5,183.5C 256.833,183.5 254.167,183.5 251.5,183.5C 251.5,182.167 251.5,180.833 251.5,179.5C 247.302,178.125 242.969,177.458 238.5,177.5C 232.143,169.962 226.31,161.962 221,153.5C 217.535,151.037 214.369,148.204 211.5,145C 193.259,134.046 174.592,123.88 155.5,114.5C 155.5,113.833 155.167,113.5 154.5,113.5 Z"/></g>
<g><path style="opacity:1" fill="#fd0114" d="M 361.5,353.5 C 353.397,343.728 346.064,333.394 339.5,322.5C 339.688,320.897 339.188,319.563 338,318.5C 337.086,265.82 337.419,213.154 339,160.5C 341.986,153.19 345.986,146.524 351,140.5C 353.714,138.964 356.547,137.63 359.5,136.5C 359.833,137.167 360.167,137.833 360.5,138.5C 361.192,137.975 361.692,137.308 362,136.5C 362.832,209.001 362.666,281.334 361.5,353.5 Z"/></g>
<g><path style="opacity:1" fill="#f2f0ee" d="M 152.5,275.5 C 152.666,285.506 152.5,295.506 152,305.5C 149.519,303.686 146.685,303.02 143.5,303.5C 143.5,306.167 143.5,308.833 143.5,311.5C 140.833,311.5 138.167,311.5 135.5,311.5C 135.244,313.792 135.577,315.959 136.5,318C 133.722,319.392 130.722,319.892 127.5,319.5C 127.5,316.833 127.5,314.167 127.5,311.5C 125.5,311.5 123.5,311.5 121.5,311.5C 121.732,304.679 118.399,302.013 111.5,303.5C 111.813,306.247 111.48,308.914 110.5,311.5C 109.833,310.833 109.167,310.167 108.5,309.5C 106.5,312.167 104.5,312.167 102.5,309.5C 100.5,312.167 98.5,312.167 96.5,309.5C 95.513,306.232 95.1796,302.898 95.5,299.5C 92.8333,299.5 90.1667,299.5 87.5,299.5C 87.6567,298.127 87.49,296.793 87,295.5C 84.8103,296.584 83.1437,295.917 82,293.5C 81.6924,294.308 81.1924,294.975 80.5,295.5C 79.52,292.914 79.1866,290.247 79.5,287.5C 78.1667,287.5 76.8333,287.5 75.5,287.5C 76.3715,284.728 76.3715,282.062 75.5,279.5C 71.5,279.5 67.5,279.5 63.5,279.5C 63.5,276.833 63.5,274.167 63.5,271.5C 59.5,271.5 55.5,271.5 51.5,271.5C 51.6641,268.813 51.4974,266.146 51,263.5C 48.1984,261.609 47.0318,258.942 47.5,255.5C 46.1667,255.5 44.8333,255.5 43.5,255.5C 43.7989,253.396 43.4656,251.396 42.5,249.5C 40.2864,251.924 39.2864,251.257 39.5,247.5C 38.1667,247.5 36.8333,247.5 35.5,247.5C 35.5,244.833 35.5,242.167 35.5,239.5C 32.8333,239.5 30.1667,239.5 27.5,239.5C 27.5,234.167 27.5,228.833 27.5,223.5C 26.1667,223.5 24.8333,223.5 23.5,223.5C 24.3715,226.272 24.3715,228.938 23.5,231.5C 20.8333,231.5 18.1667,231.5 15.5,231.5C 15.5,235.5 15.5,239.5 15.5,243.5C 12.2123,243.073 9.21227,243.74 6.5,245.5C 5.74247,244.189 4.74247,243.689 3.5,244C 4.33629,245.243 4.00296,246.41 2.5,247.5C 2.13419,253.229 1.13419,258.563 -0.5,263.5C -0.5,223.5 -0.5,183.5 -0.5,143.5C 3.64143,143.696 5.97476,141.696 6.5,137.5C 7.49329,142.12 7.82662,146.786 7.5,151.5C 8.83333,151.5 10.1667,151.5 11.5,151.5C 11.5,152.833 11.5,154.167 11.5,155.5C 10.1667,155.5 8.83333,155.5 7.5,155.5C 7.5,159.5 7.5,163.5 7.5,167.5C 10.2469,167.813 12.9135,167.48 15.5,166.5C 13.5,165.833 11.5,165.167 9.5,164.5C 11.9573,161.442 14.9573,159.108 18.5,157.5C 19.1667,158.167 19.8333,158.833 20.5,159.5C 21.3279,158.585 22.3279,157.919 23.5,157.5C 25.9724,158.992 28.6391,159.658 31.5,159.5C 31.5,162.167 31.5,164.833 31.5,167.5C 34.1667,167.5 36.8333,167.5 39.5,167.5C 39.5,170.167 39.5,172.833 39.5,175.5C 42.1667,175.5 44.8333,175.5 47.5,175.5C 47.5,178.167 47.5,180.833 47.5,183.5C 50.1667,183.5 52.8333,183.5 55.5,183.5C 55.5,188.833 55.5,194.167 55.5,199.5C 63.5923,199.155 71.5923,199.155 79.5,199.5C 79.4293,207.952 80.0959,215.952 81.5,223.5C 88.8333,222.167 96.1667,222.167 103.5,223.5C 103.5,226.167 103.5,228.833 103.5,231.5C 106.187,231.336 108.854,231.503 111.5,232C 111.384,233.268 111.051,234.602 110.5,236C 111.499,239.831 112.499,243.665 113.5,247.5C 115.5,247.5 117.5,247.5 119.5,247.5C 119.5,250.167 119.5,252.833 119.5,255.5C 122.167,255.5 124.833,255.5 127.5,255.5C 127.5,260.833 127.5,266.167 127.5,271.5C 131.434,271.979 135.101,271.312 138.5,269.5C 139.167,270.167 139.833,270.833 140.5,271.5C 142.756,267.809 143.756,263.809 143.5,259.5C 146.167,259.5 148.833,259.5 151.5,259.5C 151.179,265.026 151.512,270.36 152.5,275.5 Z"/></g>
<g><path style="opacity:1" fill="#34010e" d="M 345.5,112.5 C 330.381,116.993 319.215,126.326 312,140.5C 310.438,144.014 309.605,147.681 309.5,151.5C 308.833,178.67 308.167,206.003 307.5,233.5C 306.482,232.807 305.482,232.141 304.5,231.5C 296.489,218.805 288.489,206.139 280.5,193.5C 280.5,186.833 280.5,180.167 280.5,173.5C 280.804,170.478 281.304,167.478 282,164.5C 292.231,133.803 313.397,116.469 345.5,112.5 Z"/></g>
<g><path style="opacity:1" fill="#eaeaea" d="M 156.5,146.5 C 166.7,150.515 175.866,156.182 184,163.5C 193.757,177.356 203.257,191.356 212.5,205.5C 210.014,206.462 210.014,207.295 212.5,208C 211.5,208.5 210.5,209 209.5,209.5C 209.467,208.011 208.967,206.678 208,205.5C 207.5,206.667 206.667,207.5 205.5,208C 206.167,208.333 206.833,208.667 207.5,209C 205.601,210.897 204.101,213.064 203,215.5C 202.415,213.871 201.581,212.371 200.5,211C 200.645,210.228 200.978,209.561 201.5,209C 198.769,208.929 196.269,209.096 194,209.5C 192.846,208.257 191.512,207.257 190,206.5C 189.333,207.833 188.333,208.833 187,209.5C 186.29,208.027 185.124,207.36 183.5,207.5C 182.136,205.809 180.803,204.142 179.5,202.5C 176.522,197.531 173.189,192.865 169.5,188.5C 169.573,186.973 168.906,185.973 167.5,185.5C 163.993,179.148 159.993,173.148 155.5,167.5C 155.573,165.973 154.906,164.973 153.5,164.5C 154.697,158.274 155.697,152.274 156.5,146.5 Z"/></g>
<g><path style="opacity:1" fill="#fd0014" d="M 167.5,185.5 C 168.906,185.973 169.573,186.973 169.5,188.5C 171.003,196.501 174.336,203.501 179.5,209.5C 179.5,215.833 179.5,222.167 179.5,228.5C 179.667,269.168 179.5,309.835 179,350.5C 177.035,359.78 172.535,367.446 165.5,373.5C 162.784,373.322 160.117,372.822 157.5,372C 158.167,371.667 158.833,371.333 159.5,371C 157.508,363.194 157.341,355.36 159,347.5C 159.49,348.793 159.657,350.127 159.5,351.5C 160.5,351.5 161.5,351.5 162.5,351.5C 163.275,346.203 163.608,340.87 163.5,335.5C 162.167,335.5 160.833,335.5 159.5,335.5C 157.878,339.116 157.712,333.116 159,317.5C 159.176,320.882 159.676,324.215 160.5,327.5C 161.336,320.459 162.336,313.459 163.5,306.5C 161.377,303.683 161.044,300.683 162.5,297.5C 161.822,286.048 160.489,274.715 158.5,263.5C 159.504,256.144 159.504,248.811 158.5,241.5C 158.737,238.937 159.237,238.937 160,241.5C 160.683,248.861 160.517,256.195 159.5,263.5C 160.833,263.5 162.167,263.5 163.5,263.5C 163.5,259.5 163.5,255.5 163.5,251.5C 164.833,251.5 166.167,251.5 167.5,251.5C 167.5,250.167 167.5,248.833 167.5,247.5C 166.167,247.5 164.833,247.5 163.5,247.5C 163.5,235.5 163.5,223.5 163.5,211.5C 162.022,211.762 160.689,211.429 159.5,210.5C 158.833,208.5 158.167,206.5 157.5,204.5C 157.854,200.385 157.854,196.385 157.5,192.5C 160.058,190.88 160.058,189.38 157.5,188C 158.167,187.667 158.833,187.333 159.5,187C 157.595,186.174 157.261,185.007 158.5,183.5C 159.833,184.833 161.167,186.167 162.5,187.5C 162.833,186.167 163.167,184.833 163.5,183.5C 164.524,184.853 165.857,185.52 167.5,185.5 Z"/></g>
<g><path style="opacity:1" fill="#b3a5aa" d="M 280.5,173.5 C 280.5,180.167 280.5,186.833 280.5,193.5C 279.5,193.167 278.833,192.5 278.5,191.5C 279.167,185.5 279.833,179.5 280.5,173.5 Z"/></g>
<g><path style="opacity:1" fill="#fc1123" d="M 154.5,189.5 C 155.652,195.98 156.485,202.646 157,209.5C 157.521,260.921 157.354,312.254 156.5,363.5C 156.371,368.962 157.038,374.295 158.5,379.5C 157.167,380.167 155.833,380.833 154.5,381.5C 154.5,317.5 154.5,253.5 154.5,189.5 Z"/></g>
<g><path style="opacity:1" fill="#e00d10" d="M 169.5,188.5 C 173.189,192.865 176.522,197.531 179.5,202.5C 179.5,204.167 179.5,205.833 179.5,207.5C 179.5,208.167 179.5,208.833 179.5,209.5C 174.336,203.501 171.003,196.501 169.5,188.5 Z"/></g>
<g><path style="opacity:1" fill="#e50211" d="M 345.5,112.5 C 351.5,112.5 357.5,112.5 363.5,112.5C 363.833,194.002 363.499,275.335 362.5,356.5C 361.89,355.609 361.557,354.609 361.5,353.5C 362.666,281.334 362.832,209.001 362,136.5C 361.692,137.308 361.192,137.975 360.5,138.5C 360.167,137.833 359.833,137.167 359.5,136.5C 356.547,137.63 353.714,138.964 351,140.5C 345.986,146.524 341.986,153.19 339,160.5C 337.419,213.154 337.086,265.82 338,318.5C 339.188,319.563 339.688,320.897 339.5,322.5C 305.097,274.699 271.43,226.366 238.5,177.5C 242.969,177.458 247.302,178.125 251.5,179.5C 251.5,180.833 251.5,182.167 251.5,183.5C 254.167,183.5 256.833,183.5 259.5,183.5C 259.5,184.833 259.5,186.167 259.5,187.5C 264.569,187.75 269.402,188.084 274,188.5C 274.464,187.906 274.631,187.239 274.5,186.5C 276.063,187.945 277.396,189.611 278.5,191.5C 278.833,192.5 279.5,193.167 280.5,193.5C 288.489,206.139 296.489,218.805 304.5,231.5C 304.858,233.701 306.192,235.035 308.5,235.5C 309.5,207.508 309.833,179.508 309.5,151.5C 309.605,147.681 310.438,144.014 312,140.5C 319.215,126.326 330.381,116.993 345.5,112.5 Z"/></g>
<g><path style="opacity:1" fill="#f4f3f1" d="M 511.5,175.5 C 511.5,211.5 511.5,247.5 511.5,283.5C 507.842,284.128 505.342,282.794 504,279.5C 503.586,279.957 503.086,280.291 502.5,280.5C 500.833,279.5 499.167,278.5 497.5,277.5C 495.912,278.01 494.745,279.01 494,280.5C 493.692,279.692 493.192,279.025 492.5,278.5C 490.929,279.309 489.262,279.643 487.5,279.5C 487.5,282.167 487.5,284.833 487.5,287.5C 482.167,287.5 476.833,287.5 471.5,287.5C 471.996,292.257 471.33,296.757 469.5,301C 470.923,302.412 470.756,303.579 469,304.5C 467.301,303.594 465.467,303.261 463.5,303.5C 463.664,300.813 463.497,298.146 463,295.5C 460.656,296.197 458.489,295.531 456.5,293.5C 453.788,295.26 450.788,295.927 447.5,295.5C 447.675,301.697 446.675,302.363 444.5,297.5C 442.807,295.721 440.807,295.221 438.5,296C 439.584,298.588 441.251,300.755 443.5,302.5C 441.333,302.833 439.167,303.167 437,303.5C 433.211,303.09 429.877,302.423 427,301.5C 425.238,301.944 425.405,302.444 427.5,303C 426.207,303.49 424.873,303.657 423.5,303.5C 422.833,306.167 422.167,308.833 421.5,311.5C 411.975,312.439 402.642,312.105 393.5,310.5C 391.827,308.477 391.16,306.144 391.5,303.5C 390.127,303.657 388.793,303.49 387.5,303C 388.167,302.667 388.833,302.333 389.5,302C 387.831,300.331 385.831,299.498 383.5,299.5C 383.82,302.898 383.487,306.232 382.5,309.5C 381.158,311.005 379.492,311.672 377.5,311.5C 375.915,306.322 375.248,300.988 375.5,295.5C 374.022,295.762 372.689,295.429 371.5,294.5C 372.661,292.622 371.994,291.622 369.5,291.5C 366.395,293.798 365.728,292.798 367.5,288.5C 368.689,287.571 370.022,287.238 371.5,287.5C 371.892,284.278 371.392,281.278 370,278.5C 368.686,279.313 367.519,280.313 366.5,281.5C 365.678,269.169 365.011,256.835 364.5,244.5C 365.5,244.5 366.5,244.5 367.5,244.5C 366.445,228.182 366.278,211.849 367,195.5C 367.333,195.833 367.667,196.167 368,196.5C 368.833,195.5 369.667,194.5 370.5,193.5C 370.833,193.833 371.167,194.167 371.5,194.5C 369.73,195.82 369.397,197.32 370.5,199C 376.833,199.667 383.167,199.667 389.5,199C 390.966,198.365 392.3,197.531 393.5,196.5C 394.506,196.938 394.506,197.604 393.5,198.5C 394.167,198.833 394.833,199.167 395.5,199.5C 402.098,199.652 408.764,199.319 415.5,198.5C 414.833,197.833 414.167,197.167 413.5,196.5C 414.921,193.991 416.588,191.657 418.5,189.5C 420.328,191.807 421.994,191.474 423.5,188.5C 422.167,187.833 420.833,187.167 419.5,186.5C 422.223,183.331 423.556,179.665 423.5,175.5C 426.167,175.5 428.833,175.5 431.5,175.5C 431.5,180.833 431.5,186.167 431.5,191.5C 434.167,191.5 436.833,191.5 439.5,191.5C 439.5,188.833 439.5,186.167 439.5,183.5C 444.085,184.013 448.418,183.346 452.5,181.5C 455.899,183.312 459.566,183.979 463.5,183.5C 463.5,180.833 463.5,178.167 463.5,175.5C 466.167,175.5 468.833,175.5 471.5,175.5C 471.5,178.167 471.5,180.833 471.5,183.5C 475.182,183.665 478.848,183.499 482.5,183C 483.981,182.02 485.315,180.853 486.5,179.5C 488.719,182.574 491.719,183.907 495.5,183.5C 495.5,180.833 495.5,178.167 495.5,175.5C 497.5,175.5 499.5,175.5 501.5,175.5C 501.227,173.549 501.893,172.049 503.5,171C 503.167,170.667 502.833,170.333 502.5,170C 503.793,169.51 505.127,169.343 506.5,169.5C 506.687,172.69 508.354,174.69 511.5,175.5 Z"/></g>
<g><path style="opacity:1" fill="#fb0419" d="M 155.5,167.5 C 159.993,173.148 163.993,179.148 167.5,185.5C 165.857,185.52 164.524,184.853 163.5,183.5C 163.167,184.833 162.833,186.167 162.5,187.5C 161.167,186.167 159.833,184.833 158.5,183.5C 157.261,185.007 157.595,186.174 159.5,187C 158.833,187.333 158.167,187.667 157.5,188C 160.058,189.38 160.058,190.88 157.5,192.5C 157.854,196.385 157.854,200.385 157.5,204.5C 158.167,206.5 158.833,208.5 159.5,210.5C 160.689,211.429 162.022,211.762 163.5,211.5C 163.5,223.5 163.5,235.5 163.5,247.5C 164.833,247.5 166.167,247.5 167.5,247.5C 167.5,248.833 167.5,250.167 167.5,251.5C 166.167,251.5 164.833,251.5 163.5,251.5C 163.5,255.5 163.5,259.5 163.5,263.5C 162.167,263.5 160.833,263.5 159.5,263.5C 160.517,256.195 160.683,248.861 160,241.5C 159.237,238.937 158.737,238.937 158.5,241.5C 159.504,248.811 159.504,256.144 158.5,263.5C 160.489,274.715 161.822,286.048 162.5,297.5C 161.044,300.683 161.377,303.683 163.5,306.5C 162.336,313.459 161.336,320.459 160.5,327.5C 159.676,324.215 159.176,320.882 159,317.5C 157.712,333.116 157.878,339.116 159.5,335.5C 160.833,335.5 162.167,335.5 163.5,335.5C 163.608,340.87 163.275,346.203 162.5,351.5C 161.5,351.5 160.5,351.5 159.5,351.5C 159.657,350.127 159.49,348.793 159,347.5C 157.341,355.36 157.508,363.194 159.5,371C 158.833,371.333 158.167,371.667 157.5,372C 160.117,372.822 162.784,373.322 165.5,373.5C 163.766,376.2 161.432,378.2 158.5,379.5C 157.038,374.295 156.371,368.962 156.5,363.5C 157.354,312.254 157.521,260.921 157,209.5C 156.485,202.646 155.652,195.98 154.5,189.5C 154.175,181.981 154.508,174.648 155.5,167.5 Z"/></g>
<g><path style="opacity:1" fill="#a10517" d="M 309.5,151.5 C 309.833,179.508 309.5,207.508 308.5,235.5C 306.192,235.035 304.858,233.701 304.5,231.5C 305.482,232.141 306.482,232.807 307.5,233.5C 308.167,206.003 308.833,178.67 309.5,151.5 Z"/></g>
<g><path style="opacity:1" fill="#870710" d="M 179.5,202.5 C 180.803,204.142 182.136,205.809 183.5,207.5C 192.341,219.853 200.674,232.519 208.5,245.5C 208.832,281.671 208.498,317.671 207.5,353.5C 207.5,326.167 207.5,298.833 207.5,271.5C 207.731,262.126 207.231,252.792 206,243.5C 204.419,240.447 202.086,239.78 199,241.5C 195.873,239.377 195.373,237.044 197.5,234.5C 194.921,234.676 192.921,233.343 191.5,230.5C 181.827,225.827 177.827,218.16 179.5,207.5C 179.5,205.833 179.5,204.167 179.5,202.5 Z"/></g>
<g><path style="opacity:1" fill="#96000e" d="M 179.5,207.5 C 177.827,218.16 181.827,225.827 191.5,230.5C 192.921,233.343 194.921,234.676 197.5,234.5C 195.373,237.044 195.873,239.377 199,241.5C 202.086,239.78 204.419,240.447 206,243.5C 207.231,252.792 207.731,262.126 207.5,271.5C 195.775,258.765 186.441,244.432 179.5,228.5C 179.5,222.167 179.5,215.833 179.5,209.5C 179.5,208.833 179.5,208.167 179.5,207.5 Z"/></g>
<g><path style="opacity:1" fill="#dddfde" d="M 212.5,205.5 C 225.904,223.303 238.571,241.636 250.5,260.5C 248.177,261.058 245.843,261.725 243.5,262.5C 244.689,263.429 246.022,263.762 247.5,263.5C 247.5,264.833 247.5,266.167 247.5,267.5C 246.167,267.5 244.833,267.5 243.5,267.5C 243.785,269.288 243.452,270.955 242.5,272.5C 240.471,271.371 240.137,271.871 241.5,274C 240.437,275.188 239.103,275.688 237.5,275.5C 237.649,276.552 237.483,277.552 237,278.5C 235.855,278.619 234.688,278.952 233.5,279.5C 225.167,268.167 216.833,256.833 208.5,245.5C 200.674,232.519 192.341,219.853 183.5,207.5C 185.124,207.36 186.29,208.027 187,209.5C 188.333,208.833 189.333,207.833 190,206.5C 191.512,207.257 192.846,208.257 194,209.5C 196.269,209.096 198.769,208.929 201.5,209C 200.978,209.561 200.645,210.228 200.5,211C 201.581,212.371 202.415,213.871 203,215.5C 204.101,213.064 205.601,210.897 207.5,209C 206.833,208.667 206.167,208.333 205.5,208C 206.667,207.5 207.5,206.667 208,205.5C 208.967,206.678 209.467,208.011 209.5,209.5C 210.5,209 211.5,208.5 212.5,208C 210.014,207.295 210.014,206.462 212.5,205.5 Z"/></g>
<g><path style="opacity:1" fill="#e2000d" d="M 179.5,228.5 C 186.441,244.432 195.775,258.765 207.5,271.5C 207.5,298.833 207.5,326.167 207.5,353.5C 205.582,375.913 194.249,391.413 173.5,400C 167.419,402.75 161.086,404.583 154.5,405.5C 154.5,397.5 154.5,389.5 154.5,381.5C 155.833,380.833 157.167,380.167 158.5,379.5C 161.432,378.2 163.766,376.2 165.5,373.5C 172.535,367.446 177.035,359.78 179,350.5C 179.5,309.835 179.667,269.168 179.5,228.5 Z"/></g>
<g><path style="opacity:1" fill="#d7dad9" d="M 250.5,260.5 C 273.137,291.986 295.637,323.653 318,355.5C 320.869,358.704 324.035,361.537 327.5,364C 338.904,370.702 350.571,376.868 362.5,382.5C 363.771,386.748 364.437,391.248 364.5,396C 364.534,400.59 364.2,404.423 363.5,407.5C 356.025,403.261 348.359,399.261 340.5,395.5C 326.846,388.674 313.512,381.341 300.5,373.5C 297.833,371.167 295.167,368.833 292.5,366.5C 285.41,355.983 278.076,345.649 270.5,335.5C 257.66,317.148 245.326,298.481 233.5,279.5C 234.688,278.952 235.855,278.619 237,278.5C 237.483,277.552 237.649,276.552 237.5,275.5C 239.103,275.688 240.437,275.188 241.5,274C 240.137,271.871 240.471,271.371 242.5,272.5C 243.452,270.955 243.785,269.288 243.5,267.5C 244.833,267.5 246.167,267.5 247.5,267.5C 247.5,266.167 247.5,264.833 247.5,263.5C 246.022,263.762 244.689,263.429 243.5,262.5C 245.843,261.725 248.177,261.058 250.5,260.5 Z"/></g>
<g><path style="opacity:1" fill="#eeeceb" d="M 153.5,164.5 C 153.5,245.167 153.5,325.833 153.5,406.5C 175.688,409.893 196.021,405.059 214.5,392C 231.807,375.264 239.807,354.764 238.5,330.5C 243.102,339.095 248.102,347.429 253.5,355.5C 264.059,375.225 279.393,390.059 299.5,400C 305.591,402.753 311.924,404.587 318.5,405.5C 320.265,406.461 322.265,406.795 324.5,406.5C 337.323,407.495 350.323,407.829 363.5,407.5C 364.2,404.423 364.534,400.59 364.5,396C 364.437,391.248 363.771,386.748 362.5,382.5C 363.493,374.35 363.826,366.017 363.5,357.5C 365.22,355.342 366.053,352.675 366,349.5C 368.878,351.039 372.045,352.039 375.5,352.5C 377.428,355.951 378.761,359.618 379.5,363.5C 378.178,363.67 377.011,363.337 376,362.5C 375.506,364.134 375.34,365.801 375.5,367.5C 380.933,367.857 386.266,368.857 391.5,370.5C 388.893,371.318 386.226,371.818 383.5,372C 382.549,372.718 382.383,373.551 383,374.5C 384.4,373.884 385.9,373.551 387.5,373.5C 392.104,374.561 396.771,375.227 401.5,375.5C 405.95,375.055 410.284,375.055 414.5,375.5C 415.189,372.592 416.355,369.925 418,367.5C 418.667,368.167 419.333,368.833 420,369.5C 421.885,367.98 424.051,366.98 426.5,366.5C 431.266,366.816 435.766,367.816 440,369.5C 440.667,366.833 441.333,366.833 442,369.5C 446.178,367.601 450.678,366.935 455.5,367.5C 454.164,374.158 456.83,376.825 463.5,375.5C 463.5,372.833 463.5,370.167 463.5,367.5C 466.167,366.167 468.833,366.167 471.5,367.5C 471.5,364.833 471.5,362.167 471.5,359.5C 473.981,359.677 475.814,358.677 477,356.5C 477.414,356.957 477.914,357.291 478.5,357.5C 479.466,355.604 479.799,353.604 479.5,351.5C 468.833,350.833 468.833,350.167 479.5,349.5C 479.762,348.022 479.429,346.689 478.5,345.5C 476.051,345.589 473.717,345.089 471.5,344C 476.823,343.501 482.156,343.334 487.5,343.5C 487.337,341.143 487.503,338.81 488,336.5C 489.693,335.816 491.193,334.816 492.5,333.5C 493.167,334.167 493.833,334.833 494.5,335.5C 495.48,332.914 495.813,330.247 495.5,327.5C 498.788,327.927 501.788,327.26 504.5,325.5C 505.715,328.809 506.715,332.142 507.5,335.5C 508.833,335.5 510.167,335.5 511.5,335.5C 511.5,370.167 511.5,404.833 511.5,439.5C 510.167,439.5 508.833,439.5 507.5,439.5C 507.5,436.833 507.5,434.167 507.5,431.5C 506.167,431.5 504.833,431.5 503.5,431.5C 503.5,428.833 503.5,426.167 503.5,423.5C 500.833,423.5 498.167,423.5 495.5,423.5C 495.5,424.833 495.5,426.167 495.5,427.5C 490.125,427.172 484.792,427.505 479.5,428.5C 477.582,431.106 474.916,432.106 471.5,431.5C 472.447,436.369 470.613,439.369 466,440.5C 454.576,439.346 443.076,439.18 431.5,440C 431.892,442.354 431.892,444.854 431.5,447.5C 430.167,447.5 428.833,447.5 427.5,447.5C 427.5,450.167 427.5,452.833 427.5,455.5C 423.5,455.5 419.5,455.5 415.5,455.5C 415.5,458.167 415.5,460.833 415.5,463.5C 412.606,463.958 410.106,463.291 408,461.5C 405.544,463.321 402.711,463.988 399.5,463.5C 399.5,460.833 399.5,458.167 399.5,455.5C 396.833,455.5 394.167,455.5 391.5,455.5C 391.5,458.167 391.5,460.833 391.5,463.5C 388.833,463.5 386.167,463.5 383.5,463.5C 382.55,460.932 382.55,458.432 383.5,456C 379.909,455.211 376.409,455.378 373,456.5C 372.667,455.833 372.333,455.167 372,454.5C 362.883,456.729 353.883,456.396 345,453.5C 344.333,456.167 343.667,456.167 343,453.5C 338.142,455.414 332.975,456.081 327.5,455.5C 327.5,456.833 327.5,458.167 327.5,459.5C 324.833,459.5 322.167,459.5 319.5,459.5C 319.5,458.167 319.5,456.833 319.5,455.5C 300.833,455.5 282.167,455.5 263.5,455.5C 263.5,452.833 263.5,450.167 263.5,447.5C 260.212,447.927 257.212,447.26 254.5,445.5C 252.365,446.881 250.032,447.881 247.5,448.5C 247.162,450.655 247.162,452.989 247.5,455.5C 244.833,455.5 242.167,455.5 239.5,455.5C 239.643,453.738 239.309,452.071 238.5,450.5C 239.167,450.167 239.833,449.833 240.5,449.5C 238.654,448.235 236.82,446.902 235,445.5C 232.975,447.725 230.642,448.059 228,446.5C 227,449.167 226,449.167 225,446.5C 224.667,446.833 224.333,447.167 224,447.5C 223.829,442.136 223.329,436.802 222.5,431.5C 219.177,431.933 215.677,431.933 212,431.5C 208.724,431.558 205.724,432.224 203,433.5C 202.5,433 202,432.5 201.5,432C 192.84,431.5 184.173,431.334 175.5,431.5C 175.5,428.833 175.5,426.167 175.5,423.5C 172.833,423.5 170.167,423.5 167.5,423.5C 167.5,424.833 167.5,426.167 167.5,427.5C 163.305,427.382 159.305,428.215 155.5,430C 156.833,430.333 158.167,430.667 159.5,431C 156.183,431.498 152.85,431.665 149.5,431.5C 149.762,430.022 149.429,428.689 148.5,427.5C 147.167,428.833 145.833,430.167 144.5,431.5C 143.223,423.47 142.889,415.47 143.5,407.5C 141.11,407.145 138.777,406.478 136.5,405.5C 134.754,405.971 133.087,406.638 131.5,407.5C 130.328,407.081 129.328,406.415 128.5,405.5C 127.746,402.387 127.413,399.387 127.5,396.5C 124.412,395.921 121.745,394.587 119.5,392.5C 116.914,391.52 114.247,391.187 111.5,391.5C 111.5,389.5 111.5,387.5 111.5,385.5C 109.208,385.756 107.041,385.423 105,384.5C 104.138,386.087 103.471,387.754 103,389.5C 100.606,388.864 98.1062,388.864 95.5,389.5C 95.5,387.5 95.5,385.5 95.5,383.5C 92.8333,383.5 90.1667,383.5 87.5,383.5C 87.5,380.833 87.5,378.167 87.5,375.5C 79.2193,375.121 71.2193,373.788 63.5,371.5C 63.5,370.167 63.5,368.833 63.5,367.5C 60.8333,367.5 58.1667,367.5 55.5,367.5C 55.6795,365.046 55.0128,362.879 53.5,361C 53.923,357.936 53.923,354.769 53.5,351.5C 51.5,351.5 49.5,351.5 47.5,351.5C 47.5,348.833 47.5,346.167 47.5,343.5C 44.8333,343.5 42.1667,343.5 39.5,343.5C 39.5,340.833 39.5,338.167 39.5,335.5C 35.4068,335.478 31.4068,334.811 27.5,333.5C 25.6161,333.716 23.9494,334.383 22.5,335.5C 21.1072,334.137 19.4405,333.304 17.5,333C 17.8333,332.667 18.1667,332.333 18.5,332C 14.1794,331.501 9.84611,331.334 5.5,331.5C 4.42401,334.734 3.75734,338.068 3.5,341.5C -0.236438,341.66 -0.236438,342.493 3.5,344C 2.2394,346.662 0.906067,349.162 -0.5,351.5C -0.5,322.167 -0.5,292.833 -0.5,263.5C 1.13419,258.563 2.13419,253.229 2.5,247.5C 4.00296,246.41 4.33629,245.243 3.5,244C 4.74247,243.689 5.74247,244.189 6.5,245.5C 9.21227,243.74 12.2123,243.073 15.5,243.5C 15.5,239.5 15.5,235.5 15.5,231.5C 18.1667,231.5 20.8333,231.5 23.5,231.5C 24.3715,228.938 24.3715,226.272 23.5,223.5C 24.8333,223.5 26.1667,223.5 27.5,223.5C 27.5,228.833 27.5,234.167 27.5,239.5C 30.1667,239.5 32.8333,239.5 35.5,239.5C 35.5,242.167 35.5,244.833 35.5,247.5C 36.8333,247.5 38.1667,247.5 39.5,247.5C 39.2864,251.257 40.2864,251.924 42.5,249.5C 43.4656,251.396 43.7989,253.396 43.5,255.5C 44.8333,255.5 46.1667,255.5 47.5,255.5C 47.0318,258.942 48.1984,261.609 51,263.5C 51.4974,266.146 51.6641,268.813 51.5,271.5C 55.5,271.5 59.5,271.5 63.5,271.5C 63.5,274.167 63.5,276.833 63.5,279.5C 67.5,279.5 71.5,279.5 75.5,279.5C 76.3715,282.062 76.3715,284.728 75.5,287.5C 76.8333,287.5 78.1667,287.5 79.5,287.5C 79.1866,290.247 79.52,292.914 80.5,295.5C 81.1924,294.975 81.6924,294.308 82,293.5C 83.1437,295.917 84.8103,296.584 87,295.5C 87.49,296.793 87.6567,298.127 87.5,299.5C 90.1667,299.5 92.8333,299.5 95.5,299.5C 95.1796,302.898 95.513,306.232 96.5,309.5C 98.5,312.167 100.5,312.167 102.5,309.5C 104.5,312.167 106.5,312.167 108.5,309.5C 109.167,310.167 109.833,310.833 110.5,311.5C 111.48,308.914 111.813,306.247 111.5,303.5C 118.399,302.013 121.732,304.679 121.5,311.5C 123.5,311.5 125.5,311.5 127.5,311.5C 127.5,314.167 127.5,316.833 127.5,319.5C 130.722,319.892 133.722,319.392 136.5,318C 135.577,315.959 135.244,313.792 135.5,311.5C 138.167,311.5 140.833,311.5 143.5,311.5C 143.5,308.833 143.5,306.167 143.5,303.5C 146.685,303.02 149.519,303.686 152,305.5C 152.5,295.506 152.666,285.506 152.5,275.5C 152.168,238.33 152.502,201.33 153.5,164.5 Z"/></g>
<g><path style="opacity:1" fill="#35010d" d="M 208.5,245.5 C 216.833,256.833 225.167,268.167 233.5,279.5C 245.326,298.481 257.66,317.148 270.5,335.5C 258.853,328.494 248.52,319.828 239.5,309.5C 238.503,316.468 238.17,323.468 238.5,330.5C 239.807,354.764 231.807,375.264 214.5,392C 196.021,405.059 175.688,409.893 153.5,406.5C 154.167,406.5 154.5,406.167 154.5,405.5C 161.086,404.583 167.419,402.75 173.5,400C 194.249,391.413 205.582,375.913 207.5,353.5C 208.498,317.671 208.832,281.671 208.5,245.5 Z"/></g>
<g><path style="opacity:1" fill="#f2edeb" d="M 363.5,112.5 C 364.499,156.33 364.832,200.33 364.5,244.5C 365.011,256.835 365.678,269.169 366.5,281.5C 367.519,280.313 368.686,279.313 370,278.5C 371.392,281.278 371.892,284.278 371.5,287.5C 370.022,287.238 368.689,287.571 367.5,288.5C 365.728,292.798 366.395,293.798 369.5,291.5C 371.994,291.622 372.661,292.622 371.5,294.5C 372.689,295.429 374.022,295.762 375.5,295.5C 375.248,300.988 375.915,306.322 377.5,311.5C 379.492,311.672 381.158,311.005 382.5,309.5C 383.487,306.232 383.82,302.898 383.5,299.5C 385.831,299.498 387.831,300.331 389.5,302C 388.833,302.333 388.167,302.667 387.5,303C 388.793,303.49 390.127,303.657 391.5,303.5C 391.16,306.144 391.827,308.477 393.5,310.5C 402.642,312.105 411.975,312.439 421.5,311.5C 422.167,308.833 422.833,306.167 423.5,303.5C 424.873,303.657 426.207,303.49 427.5,303C 425.405,302.444 425.238,301.944 427,301.5C 429.877,302.423 433.211,303.09 437,303.5C 439.167,303.167 441.333,302.833 443.5,302.5C 441.251,300.755 439.584,298.588 438.5,296C 440.807,295.221 442.807,295.721 444.5,297.5C 446.675,302.363 447.675,301.697 447.5,295.5C 450.788,295.927 453.788,295.26 456.5,293.5C 458.489,295.531 460.656,296.197 463,295.5C 463.497,298.146 463.664,300.813 463.5,303.5C 465.467,303.261 467.301,303.594 469,304.5C 470.756,303.579 470.923,302.412 469.5,301C 471.33,296.757 471.996,292.257 471.5,287.5C 476.833,287.5 482.167,287.5 487.5,287.5C 487.5,284.833 487.5,282.167 487.5,279.5C 489.262,279.643 490.929,279.309 492.5,278.5C 493.192,279.025 493.692,279.692 494,280.5C 494.745,279.01 495.912,278.01 497.5,277.5C 499.167,278.5 500.833,279.5 502.5,280.5C 503.086,280.291 503.586,279.957 504,279.5C 505.342,282.794 507.842,284.128 511.5,283.5C 511.5,300.833 511.5,318.167 511.5,335.5C 510.167,335.5 508.833,335.5 507.5,335.5C 506.715,332.142 505.715,328.809 504.5,325.5C 501.788,327.26 498.788,327.927 495.5,327.5C 495.813,330.247 495.48,332.914 494.5,335.5C 493.833,334.833 493.167,334.167 492.5,333.5C 491.193,334.816 489.693,335.816 488,336.5C 487.503,338.81 487.337,341.143 487.5,343.5C 482.156,343.334 476.823,343.501 471.5,344C 473.717,345.089 476.051,345.589 478.5,345.5C 479.429,346.689 479.762,348.022 479.5,349.5C 468.833,350.167 468.833,350.833 479.5,351.5C 479.799,353.604 479.466,355.604 478.5,357.5C 477.914,357.291 477.414,356.957 477,356.5C 475.814,358.677 473.981,359.677 471.5,359.5C 471.5,362.167 471.5,364.833 471.5,367.5C 468.833,366.167 466.167,366.167 463.5,367.5C 463.5,370.167 463.5,372.833 463.5,375.5C 456.83,376.825 454.164,374.158 455.5,367.5C 450.678,366.935 446.178,367.601 442,369.5C 441.333,366.833 440.667,366.833 440,369.5C 435.766,367.816 431.266,366.816 426.5,366.5C 424.051,366.98 421.885,367.98 420,369.5C 419.333,368.833 418.667,368.167 418,367.5C 416.355,369.925 415.189,372.592 414.5,375.5C 410.284,375.055 405.95,375.055 401.5,375.5C 396.771,375.227 392.104,374.561 387.5,373.5C 385.9,373.551 384.4,373.884 383,374.5C 382.383,373.551 382.549,372.718 383.5,372C 386.226,371.818 388.893,371.318 391.5,370.5C 386.266,368.857 380.933,367.857 375.5,367.5C 375.34,365.801 375.506,364.134 376,362.5C 377.011,363.337 378.178,363.67 379.5,363.5C 378.761,359.618 377.428,355.951 375.5,352.5C 372.045,352.039 368.878,351.039 366,349.5C 366.053,352.675 365.22,355.342 363.5,357.5C 362.833,357.5 362.5,357.167 362.5,356.5C 363.499,275.335 363.833,194.002 363.5,112.5 Z"/></g>
<g><path style="opacity:1" fill="#f0444d" d="M 153.5,164.5 C 154.906,164.973 155.573,165.973 155.5,167.5C 154.508,174.648 154.175,181.981 154.5,189.5C 154.5,253.5 154.5,317.5 154.5,381.5C 154.5,389.5 154.5,397.5 154.5,405.5C 154.5,406.167 154.167,406.5 153.5,406.5C 153.5,325.833 153.5,245.167 153.5,164.5 Z"/></g>
<g><path style="opacity:1" fill="#950311" d="M 270.5,335.5 C 278.076,345.649 285.41,355.983 292.5,366.5C 277.995,358.413 264.328,349.079 251.5,338.5C 251.167,339.333 250.833,340.167 250.5,341C 251.973,345.764 252.973,350.597 253.5,355.5C 248.102,347.429 243.102,339.095 238.5,330.5C 238.17,323.468 238.503,316.468 239.5,309.5C 248.52,319.828 258.853,328.494 270.5,335.5 Z"/></g>
<g><path style="opacity:1" fill="#eceae8" d="M 511.5,439.5 C 511.5,463.5 511.5,487.5 511.5,511.5C 400.5,511.5 289.5,511.5 178.5,511.5C 179.261,510.609 180.261,509.942 181.5,509.5C 184.951,510.96 185.617,510.627 183.5,508.5C 185.005,507.158 185.672,505.492 185.5,503.5C 187.367,503.045 189.2,502.378 191,501.5C 191.833,501.833 192.667,502.167 193.5,502.5C 192.167,503.167 190.833,503.833 189.5,504.5C 192.168,505.738 194.834,505.738 197.5,504.5C 198.251,505.376 198.751,506.376 199,507.5C 199.5,507 200,506.5 200.5,506C 199.544,502.606 199.211,499.106 199.5,495.5C 197.508,495.328 195.842,495.995 194.5,497.5C 191.397,495.296 188.063,494.963 184.5,496.5C 183.833,496.167 183.167,495.833 182.5,495.5C 181.833,493.5 181.167,491.5 180.5,489.5C 179.64,491.931 177.973,493.264 175.5,493.5C 175.5,491.5 175.5,489.5 175.5,487.5C 172.833,487.5 170.167,487.5 167.5,487.5C 167.5,484.833 167.5,482.167 167.5,479.5C 165.549,479.227 164.049,479.893 163,481.5C 161.691,479.109 160.691,479.109 160,481.5C 159.667,478.167 159.333,474.833 159,471.5C 158.586,471.957 158.086,472.291 157.5,472.5C 152.935,470.858 148.268,469.525 143.5,468.5C 146.167,467.833 148.833,467.167 151.5,466.5C 149.942,464.203 147.942,463.87 145.5,465.5C 143.312,464.599 141.479,463.265 140,461.5C 139.505,463.473 139.338,465.473 139.5,467.5C 135.5,467.5 131.5,467.5 127.5,467.5C 127.5,466.167 127.5,464.833 127.5,463.5C 125.234,463.141 123.401,463.808 122,465.5C 118.851,463.638 115.351,462.971 111.5,463.5C 111.318,461.409 111.652,459.409 112.5,457.5C 108.345,455.815 104.012,455.149 99.5,455.5C 98.2715,448.23 97.6048,440.896 97.5,433.5C 94.9723,432.977 92.639,431.977 90.5,430.5C 89.5581,430.608 88.7247,430.941 88,431.5C 87.6667,428.5 87.3333,425.5 87,422.5C 84.6194,423.435 82.1194,423.768 79.5,423.5C 79.5,420.833 79.5,418.167 79.5,415.5C 76.8333,415.5 74.1667,415.5 71.5,415.5C 71.3573,417.262 71.6906,418.929 72.5,420.5C 71.9851,422.225 71.3184,423.892 70.5,425.5C 69.1667,422.833 67.8333,422.833 66.5,425.5C 63.9616,422.691 62.9616,419.357 63.5,415.5C 58.3602,415.977 53.0269,415.977 47.5,415.5C 47.5,414.167 47.5,412.833 47.5,411.5C 43.1703,412.268 39.837,410.935 37.5,407.5C 36.2054,406.902 34.8721,406.402 33.5,406C 34.6492,404.256 35.9825,404.089 37.5,405.5C 38.7681,403.696 39.4348,401.696 39.5,399.5C 36.8333,399.5 34.1667,399.5 31.5,399.5C 32.5841,394.845 30.9175,391.845 26.5,390.5C 25.8333,390.833 25.1667,391.167 24.5,391.5C 23.7564,390.009 23.0897,388.509 22.5,387C 23.3102,382.867 23.6436,378.367 23.5,373.5C 20.8333,374.167 18.1667,374.833 15.5,375.5C 15.5,378.167 15.5,380.833 15.5,383.5C 12.8333,383.5 10.1667,383.5 7.5,383.5C 7.42112,385.666 6.75445,387.666 5.5,389.5C 7.02512,394.055 8.02512,398.722 8.5,403.5C 6.6155,404.197 6.28217,405.197 7.5,406.5C 6.31116,407.429 4.97782,407.762 3.5,407.5C 2.05373,412.563 0.7204,417.563 -0.5,422.5C -0.5,398.833 -0.5,375.167 -0.5,351.5C 0.906067,349.162 2.2394,346.662 3.5,344C -0.236438,342.493 -0.236438,341.66 3.5,341.5C 3.75734,338.068 4.42401,334.734 5.5,331.5C 9.84611,331.334 14.1794,331.501 18.5,332C 18.1667,332.333 17.8333,332.667 17.5,333C 19.4405,333.304 21.1072,334.137 22.5,335.5C 23.9494,334.383 25.6161,333.716 27.5,333.5C 31.4068,334.811 35.4068,335.478 39.5,335.5C 39.5,338.167 39.5,340.833 39.5,343.5C 42.1667,343.5 44.8333,343.5 47.5,343.5C 47.5,346.167 47.5,348.833 47.5,351.5C 49.5,351.5 51.5,351.5 53.5,351.5C 53.923,354.769 53.923,357.936 53.5,361C 55.0128,362.879 55.6795,365.046 55.5,367.5C 58.1667,367.5 60.8333,367.5 63.5,367.5C 63.5,368.833 63.5,370.167 63.5,371.5C 71.2193,373.788 79.2193,375.121 87.5,375.5C 87.5,378.167 87.5,380.833 87.5,383.5C 90.1667,383.5 92.8333,383.5 95.5,383.5C 95.5,385.5 95.5,387.5 95.5,389.5C 98.1062,388.864 100.606,388.864 103,389.5C 103.471,387.754 104.138,386.087 105,384.5C 107.041,385.423 109.208,385.756 111.5,385.5C 111.5,387.5 111.5,389.5 111.5,391.5C 114.247,391.187 116.914,391.52 119.5,392.5C 121.745,394.587 124.412,395.921 127.5,396.5C 127.413,399.387 127.746,402.387 128.5,405.5C 129.328,406.415 130.328,407.081 131.5,407.5C 133.087,406.638 134.754,405.971 136.5,405.5C 138.777,406.478 141.11,407.145 143.5,407.5C 142.889,415.47 143.223,423.47 144.5,431.5C 145.833,430.167 147.167,428.833 148.5,427.5C 149.429,428.689 149.762,430.022 149.5,431.5C 152.85,431.665 156.183,431.498 159.5,431C 158.167,430.667 156.833,430.333 155.5,430C 159.305,428.215 163.305,427.382 167.5,427.5C 167.5,426.167 167.5,424.833 167.5,423.5C 170.167,423.5 172.833,423.5 175.5,423.5C 175.5,426.167 175.5,428.833 175.5,431.5C 184.173,431.334 192.84,431.5 201.5,432C 202,432.5 202.5,433 203,433.5C 205.724,432.224 208.724,431.558 212,431.5C 215.677,431.933 219.177,431.933 222.5,431.5C 223.329,436.802 223.829,442.136 224,447.5C 224.333,447.167 224.667,446.833 225,446.5C 226,449.167 227,449.167 228,446.5C 230.642,448.059 232.975,447.725 235,445.5C 236.82,446.902 238.654,448.235 240.5,449.5C 239.833,449.833 239.167,450.167 238.5,450.5C 239.309,452.071 239.643,453.738 239.5,455.5C 242.167,455.5 244.833,455.5 247.5,455.5C 247.162,452.989 247.162,450.655 247.5,448.5C 250.032,447.881 252.365,446.881 254.5,445.5C 257.212,447.26 260.212,447.927 263.5,447.5C 263.5,450.167 263.5,452.833 263.5,455.5C 282.167,455.5 300.833,455.5 319.5,455.5C 319.5,456.833 319.5,458.167 319.5,459.5C 322.167,459.5 324.833,459.5 327.5,459.5C 327.5,458.167 327.5,456.833 327.5,455.5C 332.975,456.081 338.142,455.414 343,453.5C 343.667,456.167 344.333,456.167 345,453.5C 353.883,456.396 362.883,456.729 372,454.5C 372.333,455.167 372.667,455.833 373,456.5C 376.409,455.378 379.909,455.211 383.5,456C 382.55,458.432 382.55,460.932 383.5,463.5C 386.167,463.5 388.833,463.5 391.5,463.5C 391.5,460.833 391.5,458.167 391.5,455.5C 394.167,455.5 396.833,455.5 399.5,455.5C 399.5,458.167 399.5,460.833 399.5,463.5C 402.711,463.988 405.544,463.321 408,461.5C 410.106,463.291 412.606,463.958 415.5,463.5C 415.5,460.833 415.5,458.167 415.5,455.5C 419.5,455.5 423.5,455.5 427.5,455.5C 427.5,452.833 427.5,450.167 427.5,447.5C 428.833,447.5 430.167,447.5 431.5,447.5C 431.892,444.854 431.892,442.354 431.5,440C 443.076,439.18 454.576,439.346 466,440.5C 470.613,439.369 472.447,436.369 471.5,431.5C 474.916,432.106 477.582,431.106 479.5,428.5C 484.792,427.505 490.125,427.172 495.5,427.5C 495.5,426.167 495.5,424.833 495.5,423.5C 498.167,423.5 500.833,423.5 503.5,423.5C 503.5,426.167 503.5,428.833 503.5,431.5C 504.833,431.5 506.167,431.5 507.5,431.5C 507.5,434.167 507.5,436.833 507.5,439.5C 508.833,439.5 510.167,439.5 511.5,439.5 Z"/></g>
<g><path style="opacity:1" fill="#df0411" d="M 292.5,366.5 C 295.167,368.833 297.833,371.167 300.5,373.5C 305.477,379.99 310.311,386.657 315,393.5C 317.059,396.949 318.559,400.616 319.5,404.5C 319.376,405.107 319.043,405.44 318.5,405.5C 311.924,404.587 305.591,402.753 299.5,400C 279.393,390.059 264.059,375.225 253.5,355.5C 252.973,350.597 251.973,345.764 250.5,341C 250.833,340.167 251.167,339.333 251.5,338.5C 264.328,349.079 277.995,358.413 292.5,366.5 Z"/></g>
<g><path style="opacity:1" fill="#950311" d="M 300.5,373.5 C 313.512,381.341 326.846,388.674 340.5,395.5C 342.691,398.52 342.358,401.52 339.5,404.5C 342.785,405.324 346.118,405.824 349.5,406C 341.173,406.5 332.84,406.666 324.5,406.5C 322.265,406.795 320.265,406.461 318.5,405.5C 319.043,405.44 319.376,405.107 319.5,404.5C 318.559,400.616 317.059,396.949 315,393.5C 310.311,386.657 305.477,379.99 300.5,373.5 Z"/></g>
<g><path style="opacity:1" fill="#900e1c" d="M 340.5,395.5 C 348.359,399.261 356.025,403.261 363.5,407.5C 350.323,407.829 337.323,407.495 324.5,406.5C 332.84,406.666 341.173,406.5 349.5,406C 346.118,405.824 342.785,405.324 339.5,404.5C 342.358,401.52 342.691,398.52 340.5,395.5 Z"/></g>
<g><path style="opacity:1" fill="#e8e6e5" d="M 178.5,511.5 C 118.833,511.5 59.1667,511.5 -0.5,511.5C -0.5,481.833 -0.5,452.167 -0.5,422.5C 0.7204,417.563 2.05373,412.563 3.5,407.5C 4.97782,407.762 6.31116,407.429 7.5,406.5C 6.28217,405.197 6.6155,404.197 8.5,403.5C 8.02512,398.722 7.02512,394.055 5.5,389.5C 6.75445,387.666 7.42112,385.666 7.5,383.5C 10.1667,383.5 12.8333,383.5 15.5,383.5C 15.5,380.833 15.5,378.167 15.5,375.5C 18.1667,374.833 20.8333,374.167 23.5,373.5C 23.6436,378.367 23.3102,382.867 22.5,387C 23.0897,388.509 23.7564,390.009 24.5,391.5C 25.1667,391.167 25.8333,390.833 26.5,390.5C 30.9175,391.845 32.5841,394.845 31.5,399.5C 34.1667,399.5 36.8333,399.5 39.5,399.5C 39.4348,401.696 38.7681,403.696 37.5,405.5C 35.9825,404.089 34.6492,404.256 33.5,406C 34.8721,406.402 36.2054,406.902 37.5,407.5C 39.837,410.935 43.1703,412.268 47.5,411.5C 47.5,412.833 47.5,414.167 47.5,415.5C 53.0269,415.977 58.3602,415.977 63.5,415.5C 62.9616,419.357 63.9616,422.691 66.5,425.5C 67.8333,422.833 69.1667,422.833 70.5,425.5C 71.3184,423.892 71.9851,422.225 72.5,420.5C 71.6906,418.929 71.3573,417.262 71.5,415.5C 74.1667,415.5 76.8333,415.5 79.5,415.5C 79.5,418.167 79.5,420.833 79.5,423.5C 82.1194,423.768 84.6194,423.435 87,422.5C 87.3333,425.5 87.6667,428.5 88,431.5C 88.7247,430.941 89.5581,430.608 90.5,430.5C 92.639,431.977 94.9723,432.977 97.5,433.5C 97.6048,440.896 98.2715,448.23 99.5,455.5C 104.012,455.149 108.345,455.815 112.5,457.5C 111.652,459.409 111.318,461.409 111.5,463.5C 115.351,462.971 118.851,463.638 122,465.5C 123.401,463.808 125.234,463.141 127.5,463.5C 127.5,464.833 127.5,466.167 127.5,467.5C 131.5,467.5 135.5,467.5 139.5,467.5C 139.338,465.473 139.505,463.473 140,461.5C 141.479,463.265 143.312,464.599 145.5,465.5C 147.942,463.87 149.942,464.203 151.5,466.5C 148.833,467.167 146.167,467.833 143.5,468.5C 148.268,469.525 152.935,470.858 157.5,472.5C 158.086,472.291 158.586,471.957 159,471.5C 159.333,474.833 159.667,478.167 160,481.5C 160.691,479.109 161.691,479.109 163,481.5C 164.049,479.893 165.549,479.227 167.5,479.5C 167.5,482.167 167.5,484.833 167.5,487.5C 170.167,487.5 172.833,487.5 175.5,487.5C 175.5,489.5 175.5,491.5 175.5,493.5C 177.973,493.264 179.64,491.931 180.5,489.5C 181.167,491.5 181.833,493.5 182.5,495.5C 183.167,495.833 183.833,496.167 184.5,496.5C 188.063,494.963 191.397,495.296 194.5,497.5C 195.842,495.995 197.508,495.328 199.5,495.5C 199.211,499.106 199.544,502.606 200.5,506C 200,506.5 199.5,507 199,507.5C 198.751,506.376 198.251,505.376 197.5,504.5C 194.834,505.738 192.168,505.738 189.5,504.5C 190.833,503.833 192.167,503.167 193.5,502.5C 192.667,502.167 191.833,501.833 191,501.5C 189.2,502.378 187.367,503.045 185.5,503.5C 185.672,505.492 185.005,507.158 183.5,508.5C 185.617,510.627 184.951,510.96 181.5,509.5C 180.261,509.942 179.261,510.609 178.5,511.5 Z"/></g>
</svg>
